<?xml version="1.0" standalone="no"?>
<!DOCTYPE svg PUBLIC "-//W3C//DTD SVG 20010904//EN"
 "http://www.w3.org/TR/2001/REC-SVG-20010904/DTD/svg10.dtd">
<svg version="1.0" xmlns="http://www.w3.org/2000/svg"
 width="1000.000000pt" height="400.000000pt" viewBox="0 0 1000.000000 400.000000"
 preserveAspectRatio="xMidYMid meet">

<g transform="translate(0.000000,400.000000) scale(0.100000,-0.100000)"
fill="#000000" stroke="none">
<path d="M3700 3315 c0 -8 7 -15 16 -15 14 0 14 3 4 15 -7 8 -14 15 -16 15 -2
0 -4 -7 -4 -15z"/>
<path d="M4720 3315 c0 -8 7 -15 16 -15 14 0 14 3 4 15 -7 8 -14 15 -16 15 -2
0 -4 -7 -4 -15z"/>
<path d="M5740 3315 c0 -8 7 -15 16 -15 14 0 14 3 4 15 -7 8 -14 15 -16 15 -2
0 -4 -7 -4 -15z"/>
<path d="M6760 3315 c0 -8 7 -15 16 -15 14 0 14 3 4 15 -7 8 -14 15 -16 15 -2
0 -4 -7 -4 -15z"/>
<path d="M3628 3304 c-15 -14 -8 -61 10 -77 24 -22 66 -22 83 0 13 15 11 16
-16 10 -39 -7 -49 0 -61 41 -5 19 -12 30 -16 26z"/>
<path d="M4648 3304 c-15 -14 -8 -61 10 -77 24 -22 66 -22 83 0 13 15 11 16
-16 10 -39 -7 -49 0 -61 41 -5 19 -12 30 -16 26z"/>
<path d="M5668 3304 c-15 -14 -8 -61 10 -77 24 -22 66 -22 83 0 13 15 11 16
-16 10 -39 -7 -49 0 -61 41 -5 19 -12 30 -16 26z"/>
<path d="M6688 3304 c-15 -14 -8 -61 10 -77 24 -22 66 -22 83 0 13 15 11 16
-16 10 -39 -7 -49 0 -61 41 -5 19 -12 30 -16 26z"/>
<path d="M3953 3254 c-18 -14 -33 -34 -33 -45 0 -19 1 -19 33 -3 46 23 66 44
60 60 -8 20 -24 17 -60 -12z"/>
<path d="M4973 3254 c-18 -14 -33 -34 -33 -45 0 -19 1 -19 33 -3 46 23 66 44
60 60 -8 20 -24 17 -60 -12z"/>
<path d="M5993 3254 c-18 -14 -33 -34 -33 -45 0 -19 1 -19 33 -3 46 23 66 44
60 60 -8 20 -24 17 -60 -12z"/>
<path d="M7013 3254 c-18 -14 -33 -34 -33 -45 0 -19 1 -19 33 -3 46 23 66 44
60 60 -8 20 -24 17 -60 -12z"/>
<path d="M3415 3121 c3 -6 13 -11 21 -11 21 0 29 -27 13 -47 -12 -14 -12 -16
0 -12 46 16 36 71 -14 77 -17 2 -25 0 -20 -7z"/>
<path d="M4435 3121 c3 -6 13 -11 21 -11 21 0 29 -27 13 -47 -12 -14 -12 -16
0 -12 46 16 36 71 -14 77 -17 2 -25 0 -20 -7z"/>
<path d="M5455 3121 c3 -6 13 -11 21 -11 21 0 29 -27 13 -47 -12 -14 -12 -16
0 -12 46 16 36 71 -14 77 -17 2 -25 0 -20 -7z"/>
<path d="M6475 3121 c3 -6 13 -11 21 -11 21 0 29 -27 13 -47 -12 -14 -12 -16
0 -12 46 16 36 71 -14 77 -17 2 -25 0 -20 -7z"/>
<path d="M1563 2622 c-87 -5 -83 21 -83 -503 0 -529 -8 -489 103 -489 116 0
108 -38 105 500 -3 393 -5 461 -18 474 -20 18 -44 23 -107 18z m77 -492 l0
-450 -55 0 -55 0 0 450 0 450 55 0 55 0 0 -450z"/>
<path d="M6920 2621 c-199 -6 -219 -8 -263 -29 -92 -46 -139 -137 -138 -273 0
-136 46 -225 138 -270 42 -21 67 -24 211 -29 147 -4 165 -7 178 -24 17 -24 19
-117 2 -135 -9 -10 -9 -12 -1 -7 6 3 16 -2 22 -11 8 -16 12 -13 25 19 20 47
20 98 1 144 -22 52 -60 64 -212 64 -187 0 -245 23 -292 115 -22 42 -26 63 -26
135 0 101 33 209 73 240 37 30 98 43 134 31 18 -6 109 -11 209 -11 l179 0 0
-60 0 -60 -202 0 c-185 0 -206 -2 -236 -20 -40 -24 -52 -54 -52 -125 0 -46 5
-60 29 -87 l29 -33 164 -5 c143 -5 169 -8 209 -28 85 -41 128 -141 116 -269
-10 -105 -64 -180 -145 -203 -20 -5 -130 -10 -244 -10 l-208 0 0 60 c0 70 -25
63 205 60 83 -1 146 2 142 6 -4 4 3 14 15 21 19 10 -10 12 -178 13 -234 0
-226 3 -232 -99 -3 -54 -1 -71 15 -90 20 -24 21 -24 229 -25 143 -1 225 3 259
12 76 20 125 59 160 127 27 53 30 68 30 154 0 118 -20 183 -73 233 -68 66 -90
72 -268 78 -193 6 -207 12 -202 89 3 43 6 47 48 69 41 20 57 22 227 22 177 0
182 1 197 22 16 23 22 111 10 154 -5 20 -45 47 -62 42 -4 -1 -104 -4 -222 -7z"/>
<path d="M632 2608 c-7 -7 -12 -43 -12 -89 0 -111 -6 -109 251 -109 227 0 261
-6 279 -50 15 -37 15 -122 -1 -152 -6 -13 -8 -20 -4 -16 5 4 14 3 22 -3 10 -9
16 -4 28 24 21 51 19 130 -5 176 -32 64 -65 71 -309 71 l-210 0 -6 55 c-4 31
-5 59 -1 62 7 8 432 4 466 -4 121 -29 190 -131 190 -283 0 -123 -42 -209 -123
-253 -39 -20 -58 -22 -234 -25 l-193 -4 0 -164 0 -164 -49 0 -48 0 -6 68 c-4
37 -7 138 -7 225 0 156 0 157 23 159 12 0 97 0 188 -2 158 -2 168 -1 188 19
l21 21 -214 0 c-182 0 -217 -2 -230 -16 -14 -13 -16 -50 -16 -253 0 -280 -3
-271 101 -271 35 0 70 4 77 8 22 14 32 73 32 183 0 73 4 110 13 116 6 6 73 13
147 16 77 3 157 13 186 21 67 21 135 81 165 148 21 46 24 68 24 168 0 99 -4
122 -24 167 -31 69 -95 127 -162 147 -68 20 -527 24 -547 4z"/>
<path d="M3178 2555 c-66 -36 -57 -195 11 -195 9 0 0 -8 -19 -18 l-35 -17 -3
-329 c-3 -387 -8 -366 98 -366 111 0 105 -22 108 337 2 196 -1 320 -8 337 -5
15 -24 33 -42 41 -18 8 -26 14 -17 15 21 0 55 39 62 71 9 38 -10 95 -40 119
-30 23 -77 25 -115 5z m82 -35 c5 0 14 -16 20 -35 15 -47 -6 -85 -48 -85 -38
0 -52 17 -52 61 0 40 31 74 58 64 8 -3 17 -5 22 -5z m30 -530 l0 -310 -55 0
-54 0 -3 303 c-2 166 -2 305 0 310 2 4 28 7 58 7 l54 0 0 -310z"/>
<path d="M4248 2555 c-66 -36 -57 -195 11 -195 9 0 0 -8 -19 -18 l-35 -17 -3
-334 c-2 -243 1 -337 9 -348 9 -10 33 -13 93 -11 74 3 81 5 93 28 16 31 18
604 3 645 -5 14 -24 32 -42 40 -18 8 -26 14 -17 15 21 0 55 39 62 71 9 38 -10
95 -40 119 -30 23 -77 25 -115 5z m82 -35 c5 0 14 -16 20 -35 15 -47 -6 -85
-48 -85 -38 0 -52 17 -52 61 0 40 31 74 58 64 8 -3 17 -5 22 -5z m30 -530 l0
-310 -55 0 -54 0 -3 303 c-2 166 -2 305 0 310 2 4 28 7 58 7 l54 0 0 -310z"/>
<path d="M2582 2530 c-41 -17 -44 -48 -39 -340 5 -288 12 -343 55 -412 57 -92
151 -139 291 -146 128 -5 136 0 136 102 0 100 -8 108 -119 115 -71 5 -88 10
-110 30 -34 32 -46 78 -46 178 0 73 2 83 22 97 13 9 43 16 69 16 40 0 51 4 69
28 19 23 21 36 17 91 -6 83 -19 94 -106 99 l-69 4 -4 59 c-2 33 -10 65 -16 71
-15 15 -120 21 -150 8z m118 -115 l0 -74 88 -3 87 -3 0 -55 0 -55 -87 -3 -88
-3 0 -122 c1 -135 9 -188 38 -226 33 -45 78 -64 163 -69 l79 -5 0 -60 0 -60
-87 5 c-109 6 -180 35 -228 91 -64 75 -68 99 -73 425 l-4 292 56 0 56 0 0 -75z"/>
<path d="M9402 2530 c-41 -17 -44 -48 -39 -340 5 -288 12 -343 55 -412 57 -92
151 -139 291 -146 128 -5 136 0 136 102 0 100 -8 108 -119 115 -71 5 -88 10
-110 30 -34 32 -46 78 -46 178 0 73 2 83 22 97 13 9 43 16 69 16 40 0 51 4 69
28 19 23 21 36 17 91 -6 83 -19 94 -106 99 l-69 4 -4 59 c-2 33 -10 65 -16 71
-15 15 -120 21 -150 8z m118 -115 l0 -74 88 -3 87 -3 0 -55 0 -55 -87 -3 -88
-3 0 -122 c1 -135 9 -188 38 -226 33 -45 78 -64 163 -69 l79 -5 0 -60 0 -60
-87 5 c-109 6 -180 35 -228 91 -64 75 -68 99 -73 425 l-4 292 56 0 56 0 0 -75z"/>
<path d="M4605 2383 c-22 -3 -45 -9 -52 -15 -20 -16 -18 -487 2 -554 19 -64
65 -118 129 -152 47 -25 60 -27 166 -27 106 0 120 2 173 28 67 33 107 85 132
169 13 47 16 97 13 292 -2 177 -6 238 -16 248 -19 19 -151 13 -172 -7 -12 -13
-16 -57 -20 -248 -3 -128 -9 -238 -13 -244 -5 -9 -3 -13 7 -13 8 0 16 -5 18
-12 2 -6 12 5 21 24 14 30 17 70 17 252 l0 216 55 0 55 0 0 -223 c0 -245 -9
-300 -57 -357 -49 -59 -95 -75 -213 -75 -90 0 -111 3 -147 22 -102 55 -123
126 -123 420 l0 213 55 0 55 0 1 -212 c0 -138 4 -225 12 -248 17 -49 67 -80
130 -80 28 0 47 3 44 7 -4 3 -2 12 3 18 8 9 -2 14 -41 17 -34 4 -58 12 -72 27
-21 21 -22 32 -27 258 l-5 237 -25 13 c-25 13 -31 13 -105 6z"/>
<path d="M1916 2358 c-11 -15 -16 -45 -16 -85 0 -99 7 -103 184 -103 103 0
146 -4 154 -12 6 -7 12 -81 14 -166 l3 -152 -117 0 c-129 0 -148 4 -148 30 0
25 19 30 114 30 110 0 118 8 114 116 -4 101 -8 104 -169 94 -101 -6 -122 -10
-162 -33 -25 -15 -54 -41 -65 -59 -32 -52 -45 -137 -33 -205 15 -78 48 -125
112 -157 53 -26 54 -26 289 -26 220 0 238 1 254 19 16 17 17 44 13 282 -4 300
-8 324 -71 384 -58 57 -96 65 -289 65 -160 0 -166 -1 -181 -22z m357 -29 c20
-6 53 -24 72 -40 57 -50 65 -96 65 -371 l0 -238 -222 0 c-254 0 -286 8 -327
74 -50 80 -33 239 32 300 29 27 33 28 96 22 36 -3 92 -6 124 -6 l57 0 0 -60 0
-60 -90 0 c-83 0 -93 -2 -115 -25 -31 -30 -33 -77 -5 -105 18 -18 33 -20 131
-20 85 0 114 3 125 15 9 8 24 15 35 15 10 0 19 -7 19 -15 0 -8 7 -15 16 -15
13 0 15 23 12 186 l-3 186 -28 24 c-27 23 -34 24 -173 24 l-144 0 0 59 c0 54
2 60 23 63 41 6 262 -4 300 -13z"/>
<path d="M3643 2366 c-62 -20 -107 -51 -137 -96 -47 -71 -56 -132 -56 -381 0
-267 -3 -259 103 -259 109 0 107 -4 107 258 0 244 -3 235 74 267 47 20 95 13
122 -16 17 -19 19 -42 22 -252 2 -149 7 -236 14 -245 8 -9 34 -12 92 -10 111
4 108 -5 103 283 -5 278 -14 316 -87 387 -34 33 -65 52 -101 62 -63 19 -198
20 -256 2z m153 -26 c116 -13 188 -63 219 -149 12 -34 15 -92 15 -277 l0 -234
-49 0 -49 0 -4 224 c-3 208 -4 227 -24 253 -34 46 -80 65 -151 61 -68 -4 -108
-25 -130 -69 -9 -17 -13 -90 -13 -246 l0 -223 -55 0 -55 0 0 238 c1 187 4 245
16 277 8 22 20 54 25 72 16 52 101 99 159 87 14 -3 57 -9 96 -14z"/>
<path d="M5420 2367 c-53 -17 -116 -86 -134 -148 -21 -68 -24 -557 -4 -577 19
-19 162 -16 179 5 11 12 15 70 17 249 l4 234 25 20 c32 25 59 26 73 1 6 -12
10 -112 10 -254 0 -278 -4 -267 108 -267 104 0 102 -6 102 270 l0 226 30 22
c16 12 35 22 43 22 34 0 37 -21 37 -260 0 -288 -3 -280 104 -280 110 0 106
-12 106 281 0 271 -9 327 -58 387 -48 60 -93 77 -202 77 -79 0 -101 -3 -128
-21 l-33 -21 -46 24 c-37 18 -61 23 -122 22 -42 -1 -92 -6 -111 -12z m75 -17
c3 -5 25 -10 48 -10 52 0 121 -31 137 -61 12 -21 13 -22 23 -3 6 10 11 26 12
34 0 8 18 24 39 34 33 16 44 17 71 7 17 -6 44 -11 59 -11 37 0 96 -26 129 -58
49 -46 57 -100 57 -364 l0 -238 -55 0 -54 0 -3 246 -3 246 -28 24 c-42 36
-109 34 -148 -5 l-29 -29 0 -241 0 -241 -55 0 -55 0 0 225 c0 291 -9 315 -113
315 -56 0 -85 -22 -97 -75 -5 -22 -10 -136 -10 -252 l0 -213 -49 0 -49 0 -7
96 c-4 53 -5 167 -2 253 5 161 25 249 65 294 25 28 105 47 117 27z"/>
<path d="M7342 2367 c-9 -10 -13 -144 -14 -511 -2 -576 -10 -531 101 -531 43
0 74 5 84 14 15 12 17 53 17 400 0 212 4 391 8 397 14 21 51 34 94 33 110 -1
158 -49 158 -160 0 -37 -5 -80 -10 -95 -10 -26 -2 -43 21 -44 15 0 39 84 39
137 0 76 -17 126 -54 161 -44 42 -85 52 -202 52 l-104 0 0 -426 0 -425 -52 3
-53 3 -3 481 -2 481 38 12 c29 10 44 10 60 2 12 -6 69 -11 130 -11 136 0 199
-17 257 -71 60 -55 87 -124 93 -229 11 -223 -79 -344 -267 -358 l-71 -5 0 62
c0 37 4 61 11 61 6 0 22 9 36 20 l26 20 -42 0 c-74 0 -81 -9 -81 -104 0 -107
3 -110 117 -104 146 7 235 63 289 180 26 58 29 72 29 183 0 86 -5 136 -17 176
-23 74 -89 148 -160 180 -49 22 -67 24 -259 27 -169 3 -207 1 -217 -11z"/>
<path d="M8262 2362 c-76 -28 -122 -69 -162 -147 -35 -68 -35 -68 -35 -204 0
-157 14 -213 71 -279 56 -65 130 -96 244 -100 119 -5 191 19 255 83 69 69 89
134 89 290 0 110 -3 138 -22 185 -30 76 -73 124 -139 157 -76 37 -219 44 -301
15z m159 -22 c120 -15 189 -61 230 -152 20 -45 23 -70 24 -168 0 -137 -14
-194 -62 -250 -52 -60 -103 -83 -199 -88 -106 -6 -171 15 -228 72 -57 57 -81
131 -81 256 0 174 65 316 153 336 15 3 32 7 37 9 6 2 21 2 35 -1 14 -3 55 -9
91 -14z"/>
<path d="M8303 2201 c-63 -29 -87 -82 -88 -191 0 -138 44 -199 152 -208 32 -2
55 -1 51 3 -4 5 -3 14 3 22 9 10 4 13 -25 13 -96 0 -147 80 -131 202 9 63 43
101 105 118 57 15 107 -3 133 -48 25 -43 27 -163 4 -209 l-17 -32 28 2 c35 3
51 46 51 142 1 81 -25 145 -72 179 -40 29 -139 33 -194 7z"/>
<path d="M9029 2364 c-82 -25 -140 -73 -176 -145 -42 -83 -53 -156 -53 -369 0
-220 0 -220 104 -220 108 0 106 -5 106 229 0 141 4 200 14 225 19 45 73 76
143 82 111 9 120 12 133 44 15 36 9 132 -9 154 -18 21 -195 21 -262 0z m224
-31 c4 -2 7 -29 7 -59 l0 -54 -72 0 c-97 0 -140 -14 -177 -55 -44 -51 -51 -90
-51 -297 l0 -188 -56 0 -56 0 4 223 c4 213 6 225 32 297 31 84 45 104 96 131
31 16 49 18 150 13 63 -4 118 -8 123 -11z"/>
<path d="M5102 1358 c-5 -7 -27 -58 -50 -113 -22 -55 -56 -140 -76 -189 -21
-48 -35 -94 -32 -102 8 -20 85 -19 92 1 4 8 14 15 23 15 27 0 81 39 91 66 17
43 49 28 74 -36 21 -53 23 -55 64 -58 30 -2 44 1 48 11 3 8 -27 93 -66 188
-96 232 -95 229 -129 229 -16 0 -33 -6 -39 -12z m139 -203 c44 -104 79 -190
79 -192 0 -2 -13 -3 -29 -3 -26 0 -31 6 -51 60 l-22 60 -82 0 -81 0 -21 -57
c-17 -49 -24 -58 -47 -61 -15 -2 -27 -2 -27 0 0 2 27 76 61 164 33 87 66 174
72 192 9 29 15 33 40 30 29 -3 33 -10 108 -193z"/>
<path d="M5108 1212 c-15 -42 -26 -77 -24 -79 2 -2 28 -3 58 -1 l54 3 -31 77
-30 76 -27 -76z m35 -60 c-34 -5 -37 1 -22 45 l12 38 17 -40 17 -40 -24 -3z"/>
<path d="M2517 1339 c-56 -30 -81 -90 -81 -195 0 -136 54 -204 161 -204 36 0
60 -5 70 -16 18 -17 63 -12 102 13 23 15 23 17 16 117 -3 55 -10 105 -14 109
-5 4 -37 7 -72 5 l-64 -3 -3 -36 c-3 -35 -1 -37 32 -43 30 -6 36 -11 36 -31 0
-24 -2 -25 -68 -25 -94 0 -107 14 -107 120 0 110 11 120 124 120 47 0 96 3
108 6 25 7 37 34 28 64 -6 18 -15 20 -118 20 -93 -1 -119 -4 -150 -21z m212 5
c21 -4 31 -12 31 -24 0 -16 -12 -19 -100 -22 -93 -3 -101 -5 -127 -31 -24 -24
-28 -36 -31 -101 -4 -79 11 -126 47 -146 11 -5 54 -10 95 -10 l76 0 0 45 0 45
-40 0 c-36 0 -40 3 -40 25 0 24 2 25 66 25 l67 0 -7 -52 c-3 -29 -6 -72 -6
-95 l0 -43 -97 0 c-167 0 -208 39 -208 195 0 105 19 149 75 177 36 18 137 24
199 12z"/>
<path d="M4370 1195 l0 -165 -43 0 c-55 0 -67 13 -67 71 0 52 11 66 55 71 28
3 30 6 30 43 0 35 -3 40 -25 43 -13 2 -41 -1 -63 -8 -129 -38 -105 -310 28
-310 18 0 38 -7 45 -15 17 -21 59 -19 99 6 33 20 33 21 27 72 -3 29 -6 121 -6
205 l0 152 -40 0 -40 0 0 -165z m60 -40 l0 -195 -83 0 c-94 0 -121 12 -143 66
-18 43 -18 115 1 160 26 62 125 84 125 28 0 -20 -5 -24 -29 -24 -39 0 -61 -32
-61 -90 0 -70 19 -90 88 -90 l57 0 -2 170 -2 170 25 0 24 0 0 -195z"/>
<path d="M6656 1304 c-3 -9 -6 -68 -6 -132 0 -134 13 -172 70 -210 27 -18 45
-22 85 -20 47 3 50 5 53 31 5 38 -14 57 -53 57 -46 0 -65 26 -65 88 0 51 1 52
30 52 34 0 48 20 42 61 -4 26 -8 29 -43 29 -37 0 -39 2 -39 30 0 27 -3 30 -34
30 -22 0 -36 -6 -40 -16z m64 -29 c0 -33 2 -35 35 -35 31 0 35 -3 35 -25 0
-23 -4 -25 -41 -25 l-41 0 6 -67 c8 -81 35 -113 92 -113 30 0 34 -3 34 -25 0
-22 -4 -25 -32 -25 -49 0 -101 30 -120 70 -14 28 -18 61 -18 158 l0 122 25 0
c22 0 25 -4 25 -35z"/>
<path d="M2910 1243 c-59 -30 -77 -69 -85 -182 -4 -55 -4 -104 0 -110 9 -15
68 -14 83 1 8 8 12 46 12 104 0 104 4 111 70 116 l45 3 0 40 0 40 -45 3 c-28
1 -58 -4 -80 -15z m110 -28 c0 -23 -4 -25 -43 -25 -68 0 -81 -21 -85 -136 -4
-85 -6 -94 -23 -94 -17 0 -19 8 -21 73 -3 168 20 206 125 207 44 0 47 -2 47
-25z"/>
<path d="M3082 1129 l3 -131 33 -29 c20 -18 43 -29 62 -29 16 0 32 -4 35 -10
14 -23 54 -9 88 30 40 48 47 73 47 185 0 105 -4 115 -45 115 -42 0 -45 -9 -45
-125 0 -99 -3 -105 -54 -105 -39 0 -46 18 -46 127 l0 103 -41 0 -41 0 4 -131z
m246 0 c-3 -103 -5 -110 -31 -136 -24 -24 -35 -28 -86 -28 -96 0 -121 39 -121
193 0 81 0 82 25 82 25 0 25 0 25 -93 0 -112 12 -137 67 -137 62 0 73 19 73
130 0 53 3 99 6 102 3 3 14 3 26 0 19 -5 20 -11 16 -113z"/>
<path d="M3405 1248 c-3 -7 -4 -108 -3 -223 l3 -210 28 -3 c53 -6 56 3 51 189
l-5 169 45 0 c55 0 76 -19 76 -69 0 -44 -21 -68 -65 -73 -28 -3 -30 -6 -30
-43 0 -47 9 -51 92 -40 38 5 56 12 60 23 2 9 10 28 16 41 16 33 14 140 -3 175
-28 56 -62 71 -166 74 -73 3 -95 1 -99 -10z m198 -19 c83 -38 87 -193 8 -246
-19 -13 -47 -23 -62 -23 -24 0 -29 4 -29 25 0 20 5 25 25 25 65 0 99 97 54
154 -18 23 -28 26 -80 26 l-59 0 0 -180 c0 -172 -1 -180 -19 -180 -19 0 -20
10 -23 203 -2 111 -1 206 1 211 5 12 151 0 184 -15z"/>
<path d="M3794 1241 c-51 -23 -74 -68 -74 -146 0 -86 37 -141 102 -152 21 -3
41 -10 44 -14 8 -14 52 -11 84 6 32 17 48 56 57 146 14 138 -89 216 -213 160z
m108 -1 c55 -16 82 -59 82 -134 0 -75 -21 -120 -65 -135 -108 -37 -179 16
-179 134 0 74 25 120 72 134 44 12 47 12 90 1z"/>
<path d="M3804 1169 c-29 -32 -26 -115 5 -140 35 -28 85 -25 110 7 28 36 29
106 1 134 -28 28 -90 27 -116 -1z m106 -18 c15 -29 12 -87 -6 -105 -24 -25
-71 -20 -90 9 -17 27 -14 76 7 102 18 20 76 17 89 -6z"/>
<path d="M4573 1241 c-54 -25 -76 -67 -77 -147 -1 -110 52 -156 174 -152 l75
3 0 40 0 40 -65 3 c-78 4 -100 20 -100 73 0 53 21 71 79 67 61 -4 55 -22 -9
-26 l-50 -3 0 -40 0 -39 53 -2 c123 -4 121 -4 134 22 19 36 16 90 -7 127 -32
53 -129 69 -207 34z m167 -20 c34 -24 46 -71 29 -107 -13 -27 -18 -29 -82 -32
-62 -3 -67 -1 -67 18 0 16 6 20 33 20 51 0 77 11 77 31 0 44 -105 55 -145 14
-35 -34 -35 -96 0 -130 20 -21 34 -25 85 -25 57 0 60 -1 60 -25 0 -24 -2 -25
-62 -25 -67 0 -118 21 -136 57 -30 57 -21 163 18 198 41 37 141 40 190 6z"/>
<path d="M5355 1248 c-3 -7 -4 -108 -3 -223 l3 -210 28 -3 c54 -6 57 3 50 189
l-6 169 46 0 c56 0 77 -19 77 -69 0 -44 -21 -68 -65 -73 -28 -3 -30 -6 -30
-43 0 -47 9 -51 92 -40 38 5 56 12 60 23 2 9 10 28 16 41 17 33 14 140 -3 175
-28 56 -62 71 -166 74 -73 3 -95 1 -99 -10z m198 -19 c83 -38 87 -193 8 -246
-19 -13 -47 -23 -62 -23 -24 0 -29 4 -29 25 0 20 5 25 25 25 65 0 99 97 54
154 -18 23 -28 26 -80 26 l-59 0 0 -180 c0 -171 -1 -180 -19 -180 -19 0 -20
10 -23 203 -2 111 -2 206 1 211 5 12 151 0 184 -15z"/>
<path d="M5687 1253 c-5 -8 -11 -163 -8 -216 1 -40 60 -97 98 -97 16 0 34 -5
40 -11 15 -15 76 -3 95 19 25 29 38 95 38 190 0 113 -3 122 -45 122 -42 0 -45
-9 -45 -125 0 -99 -3 -105 -54 -105 -39 0 -46 18 -46 127 l0 103 -34 0 c-19 0
-37 -3 -39 -7z m53 -106 c0 -112 12 -137 67 -137 63 0 73 19 73 132 l0 98 26
0 26 0 -4 -110 c-3 -103 -5 -112 -29 -136 -30 -30 -98 -42 -141 -25 -44 17
-56 47 -64 164 l-7 107 27 0 26 0 0 -93z"/>
<path d="M6063 1241 c-54 -25 -76 -67 -77 -146 -1 -69 16 -104 67 -136 26 -16
47 -19 107 -17 l75 3 0 40 0 40 -65 3 c-78 4 -100 20 -100 73 0 53 21 71 79
67 61 -4 55 -22 -9 -26 l-50 -3 0 -38 0 -38 67 -6 c37 -3 77 -1 88 3 46 17 56
105 20 157 -30 43 -132 55 -202 24z m167 -20 c34 -24 46 -71 29 -107 -13 -27
-18 -29 -82 -32 -62 -3 -67 -1 -67 18 0 16 6 20 33 20 51 0 77 11 77 31 0 24
-30 39 -80 39 -56 0 -90 -34 -90 -90 0 -63 32 -90 110 -90 57 0 60 -1 60 -25
0 -24 -2 -25 -62 -25 -67 0 -118 21 -136 57 -30 57 -21 163 18 198 41 37 141
40 190 6z"/>
<path d="M6384 1250 c-35 -14 -54 -50 -54 -101 0 -66 22 -83 118 -89 46 -3 77
-10 79 -17 3 -9 -20 -13 -84 -15 l-88 -3 0 -40 0 -40 68 -3 c37 -2 67 -7 67
-12 0 -14 54 -12 84 2 27 11 30 19 40 80 7 40 -10 94 -37 116 -9 7 -46 14 -88
15 -47 1 -74 6 -77 15 -3 9 17 12 76 12 88 0 106 10 100 57 l-3 28 -90 2 c-49
1 -100 -2 -111 -7z m154 -10 c27 0 32 -4 32 -25 0 -24 -2 -24 -87 -27 -78 -3
-88 -5 -91 -22 -6 -31 26 -46 97 -46 81 0 101 -15 101 -77 0 -69 -21 -83 -130
-83 -89 0 -90 0 -90 25 0 25 1 25 85 25 70 0 87 3 92 16 13 35 -11 49 -88 52
-83 3 -104 15 -113 66 -8 43 7 84 36 96 13 6 46 8 73 5 28 -3 65 -5 83 -5z"/>
<path d="M6946 1244 c-19 -49 2 -68 81 -74 l68 -5 3 -67 3 -68 -61 0 c-46 0
-60 3 -60 14 0 11 14 16 48 18 47 3 47 3 47 38 l0 35 -57 3 c-69 4 -95 -9
-114 -54 -32 -76 11 -144 91 -144 26 0 48 -6 55 -15 18 -21 69 -19 109 6 l33
20 -7 117 c-4 64 -12 128 -18 142 -18 37 -54 50 -138 50 -61 0 -78 -3 -83 -16z
m191 -28 c21 -25 23 -37 23 -142 l0 -114 -100 0 c-94 0 -103 2 -125 25 -31 30
-33 83 -6 116 15 19 28 23 72 24 49 0 54 -2 57 -22 3 -20 -1 -23 -30 -23 -42
0 -71 -20 -66 -46 3 -16 13 -19 81 -22 l77 -3 0 71 c0 103 -6 110 -90 110 -67
0 -70 1 -70 23 0 36 9 40 84 34 60 -4 73 -8 93 -31z"/>
<path d="M7283 1250 c-55 -23 -77 -121 -35 -162 18 -19 37 -24 99 -28 47 -3
78 -10 80 -17 3 -9 -20 -13 -84 -15 l-88 -3 0 -40 0 -40 68 -3 c37 -2 67 -7
67 -12 0 -14 54 -12 84 2 27 11 30 19 40 80 7 40 -10 94 -37 116 -9 7 -46 14
-88 15 -47 1 -74 6 -77 15 -3 9 17 12 76 12 88 0 106 10 100 57 l-3 28 -90 2
c-49 1 -100 -2 -112 -7z m155 -10 c27 0 32 -4 32 -25 0 -24 -2 -24 -87 -27
-78 -3 -88 -5 -91 -22 -6 -31 26 -46 97 -46 81 0 101 -15 101 -77 0 -69 -21
-83 -130 -83 -89 0 -90 0 -90 25 0 25 1 25 85 25 70 0 87 3 92 16 13 35 -11
49 -88 52 -83 3 -104 15 -113 66 -8 43 7 84 36 96 13 6 46 8 73 5 28 -3 65 -5
83 -5z"/>
<path d="M4420 560 l0 -110 160 0 160 0 0 55 0 55 -105 0 -105 0 0 55 0 55
-55 0 -55 0 0 -110z m70 55 c0 -8 -7 -15 -15 -15 -8 0 -15 7 -15 15 0 8 7 15
15 15 8 0 15 -7 15 -15z"/>
<path d="M5440 560 l0 -110 55 0 55 0 0 110 0 110 -55 0 -55 0 0 -110z"/>
<path d="M5660 560 l0 -110 55 0 55 0 0 110 0 110 -55 0 -55 0 0 -110z"/>
<path d="M6630 615 l0 -55 -85 0 -85 0 0 -55 0 -55 85 0 85 0 0 55 0 55 85 0
85 0 0 55 0 55 -85 0 -85 0 0 -55z"/>
<path d="M6537 624 c-8 -8 1 -24 14 -24 5 0 9 7 9 15 0 15 -12 20 -23 9z"/>
<path d="M6116 600 c7 -7 19 -7 35 -1 23 9 22 10 -10 10 -24 1 -32 -2 -25 -9z"/>
<path d="M3440 525 l0 -75 160 0 160 0 0 75 0 75 -160 0 -160 0 0 -75z"/>
<path d="M5620 575 c0 -15 4 -24 10 -20 6 3 10 12 10 20 0 8 -4 17 -10 20 -6
4 -10 -5 -10 -20z"/>
<path d="M5570 578 c0 -8 6 -20 13 -27 10 -11 9 -14 -1 -18 -19 -7 -3 -23 24
-23 29 0 31 15 4 30 -11 6 -20 17 -20 25 0 7 -4 17 -10 20 -5 3 -10 0 -10 -7z"/>
<path d="M6114 548 c4 -32 -9 -38 -17 -8 -4 17 -14 20 -66 20 l-61 0 0 -55 0
-55 165 0 165 0 0 55 0 56 -62 -3 c-46 -2 -63 -7 -63 -17 0 -8 -6 -16 -13 -19
-11 -3 -12 0 -2 18 6 12 8 25 4 28 -4 4 -9 1 -11 -5 -3 -7 -11 -13 -18 -13 -7
0 -16 6 -19 13 -3 6 -4 0 -2 -15z"/>
<path d="M4910 505 l0 -55 190 0 190 0 0 55 0 55 -190 0 -190 0 0 -55z"/>
<path d="M6706 512 c-3 -6 -1 -14 5 -17 15 -10 25 3 12 16 -7 7 -13 7 -17 1z"/>
</g>
</svg>
